<svg width="116" height="12" viewBox="0 0 116 12" fill="none" xmlns="http://www.w3.org/2000/svg">
<path d="M3.332 2.688C3.844 2.688 4.288 2.788 4.664 2.988C5.048 3.18 5.344 3.476 5.552 3.876C5.768 4.268 5.876 4.756 5.876 5.34V9H5.276V5.388C5.276 4.684 5.096 4.148 4.736 3.78C4.384 3.412 3.888 3.228 3.248 3.228C2.76 3.228 2.336 3.328 1.976 3.528C1.616 3.728 1.34 4.008 1.148 4.368C0.964 4.728 0.872 5.16 0.872 5.664V9H0.272V0.0959995H0.872V4.476L0.764 4.284C0.956 3.788 1.272 3.4 1.712 3.12C2.152 2.832 2.692 2.688 3.332 2.688ZM10.8902 9.048C10.2582 9.048 9.69822 8.912 9.21022 8.64C8.73022 8.368 8.35022 7.992 8.07022 7.512C7.79822 7.032 7.66222 6.484 7.66222 5.868C7.66222 5.244 7.79022 4.696 8.04622 4.224C8.31022 3.744 8.67022 3.368 9.12622 3.096C9.58222 2.824 10.0942 2.688 10.6622 2.688C11.2302 2.688 11.7382 2.82 12.1862 3.084C12.6422 3.348 12.9982 3.72 13.2542 4.2C13.5182 4.672 13.6502 5.22 13.6502 5.844C13.6502 5.868 13.6462 5.896 13.6382 5.928C13.6382 5.952 13.6382 5.98 13.6382 6.012H8.10622V5.544H13.3142L13.0742 5.772C13.0822 5.284 12.9782 4.848 12.7622 4.464C12.5542 4.072 12.2702 3.768 11.9102 3.552C11.5502 3.328 11.1342 3.216 10.6622 3.216C10.1982 3.216 9.78222 3.328 9.41422 3.552C9.05422 3.768 8.77022 4.072 8.56222 4.464C8.35422 4.848 8.25022 5.288 8.25022 5.784V5.892C8.25022 6.404 8.36222 6.86 8.58622 7.26C8.81822 7.652 9.13422 7.96 9.53422 8.184C9.93422 8.4 10.3902 8.508 10.9022 8.508C11.3022 8.508 11.6742 8.436 12.0182 8.292C12.3702 8.148 12.6662 7.928 12.9062 7.632L13.2542 8.028C12.9822 8.364 12.6382 8.62 12.2222 8.796C11.8142 8.964 11.3702 9.048 10.8902 9.048ZM15.5064 9V0.0959995H16.1064V9H15.5064ZM18.6353 9V0.0959995H19.2353V9H18.6353ZM24.2122 9.048C23.6122 9.048 23.0762 8.912 22.6042 8.64C22.1402 8.368 21.7682 7.992 21.4882 7.512C21.2162 7.032 21.0802 6.484 21.0802 5.868C21.0802 5.244 21.2162 4.696 21.4882 4.224C21.7682 3.744 22.1402 3.368 22.6042 3.096C23.0762 2.824 23.6122 2.688 24.2122 2.688C24.8122 2.688 25.3482 2.824 25.8202 3.096C26.2922 3.368 26.6642 3.744 26.9362 4.224C27.2082 4.696 27.3442 5.244 27.3442 5.868C27.3442 6.484 27.2082 7.032 26.9362 7.512C26.6642 7.992 26.2922 8.368 25.8202 8.64C25.3482 8.912 24.8122 9.048 24.2122 9.048ZM24.2122 8.508C24.6922 8.508 25.1242 8.4 25.5082 8.184C25.8922 7.96 26.1922 7.648 26.4082 7.248C26.6242 6.848 26.7322 6.388 26.7322 5.868C26.7322 5.34 26.6242 4.88 26.4082 4.488C26.1922 4.088 25.8922 3.78 25.5082 3.564C25.1242 3.34 24.6922 3.228 24.2122 3.228C23.7322 3.228 23.3002 3.34 22.9162 3.564C22.5402 3.78 22.2402 4.088 22.0162 4.488C21.8002 4.88 21.6922 5.34 21.6922 5.868C21.6922 6.388 21.8002 6.848 22.0162 7.248C22.2402 7.648 22.5402 7.96 22.9162 8.184C23.3002 8.4 23.7322 8.508 24.2122 8.508ZM34.1016 11.388C33.2936 11.388 32.5496 11.252 31.8696 10.98C31.1976 10.716 30.6136 10.34 30.1176 9.852C29.6296 9.372 29.2536 8.804 28.9896 8.148C28.7256 7.484 28.5936 6.752 28.5936 5.952C28.5936 5.152 28.7256 4.42 28.9896 3.756C29.2616 3.092 29.6456 2.52 30.1416 2.04C30.6376 1.56 31.2256 1.192 31.9056 0.935999C32.5856 0.671999 33.3336 0.539999 34.1496 0.539999C34.9576 0.539999 35.6976 0.668 36.3696 0.924C37.0416 1.18 37.6256 1.544 38.1216 2.016C38.6176 2.48 38.9976 3.04 39.2616 3.696C39.5336 4.344 39.6696 5.06 39.6696 5.844C39.6696 6.524 39.5936 7.104 39.4416 7.584C39.2896 8.056 39.0736 8.42 38.7936 8.676C38.5136 8.924 38.1896 9.048 37.8216 9.048C37.4456 9.048 37.1416 8.936 36.9096 8.712C36.6776 8.488 36.5616 8.172 36.5616 7.764V6.708L36.6696 5.904L36.5496 4.86V2.868H37.1016V7.608C37.1016 7.952 37.1776 8.196 37.3296 8.34C37.4816 8.484 37.6696 8.556 37.8936 8.556C38.1576 8.556 38.3856 8.452 38.5776 8.244C38.7776 8.028 38.9296 7.72 39.0336 7.32C39.1456 6.92 39.2016 6.432 39.2016 5.856C39.2016 5.128 39.0776 4.468 38.8296 3.876C38.5896 3.276 38.2416 2.76 37.7856 2.328C37.3376 1.896 36.8056 1.568 36.1896 1.344C35.5736 1.112 34.8936 0.995999 34.1496 0.995999C33.4056 0.995999 32.7216 1.116 32.0976 1.356C31.4736 1.596 30.9376 1.936 30.4896 2.376C30.0416 2.816 29.6936 3.34 29.4456 3.948C29.2056 4.548 29.0856 5.216 29.0856 5.952C29.0856 6.68 29.2056 7.348 29.4456 7.956C29.6856 8.564 30.0256 9.088 30.4656 9.528C30.9136 9.976 31.4456 10.32 32.0616 10.56C32.6776 10.8 33.3576 10.92 34.1016 10.92C34.4616 10.92 34.8456 10.876 35.2536 10.788C35.6696 10.708 36.0496 10.576 36.3936 10.392L36.5496 10.836C36.1976 11.02 35.7976 11.156 35.3496 11.244C34.9016 11.34 34.4856 11.388 34.1016 11.388ZM34.0056 9.048C33.4376 9.048 32.9256 8.916 32.4696 8.652C32.0216 8.38 31.6656 8.008 31.4016 7.536C31.1456 7.064 31.0176 6.528 31.0176 5.928C31.0176 5.32 31.1456 4.784 31.4016 4.32C31.6656 3.856 32.0216 3.492 32.4696 3.228C32.9256 2.956 33.4376 2.82 34.0056 2.82C34.5656 2.82 35.0616 2.948 35.4936 3.204C35.9336 3.46 36.2776 3.82 36.5256 4.284C36.7816 4.748 36.9096 5.296 36.9096 5.928C36.9096 6.552 36.7816 7.1 36.5256 7.572C36.2776 8.044 35.9376 8.408 35.5056 8.664C35.0736 8.92 34.5736 9.048 34.0056 9.048ZM34.0656 8.544C34.5456 8.544 34.9736 8.436 35.3496 8.22C35.7256 7.996 36.0216 7.688 36.2376 7.296C36.4536 6.904 36.5616 6.448 36.5616 5.928C36.5616 5.4 36.4536 4.944 36.2376 4.56C36.0216 4.168 35.7256 3.864 35.3496 3.648C34.9736 3.432 34.5456 3.324 34.0656 3.324C33.5936 3.324 33.1696 3.432 32.7936 3.648C32.4176 3.864 32.1216 4.168 31.9056 4.56C31.6896 4.952 31.5816 5.408 31.5816 5.928C31.5816 6.44 31.6896 6.896 31.9056 7.296C32.1216 7.688 32.4176 7.996 32.7936 8.22C33.1696 8.436 33.5936 8.544 34.0656 8.544ZM41.604 9V2.736H42.18V4.452L42.12 4.26C42.296 3.756 42.592 3.368 43.008 3.096C43.424 2.824 43.944 2.688 44.568 2.688V3.276C44.544 3.276 44.52 3.276 44.496 3.276C44.472 3.268 44.448 3.264 44.424 3.264C43.728 3.264 43.184 3.484 42.792 3.924C42.4 4.356 42.204 4.96 42.204 5.736V9H41.604ZM46.2212 9V2.736H46.8212V9H46.2212ZM46.5212 1.212C46.3852 1.212 46.2692 1.164 46.1732 1.068C46.0772 0.972 46.0292 0.86 46.0292 0.732C46.0292 0.596 46.0772 0.48 46.1732 0.383999C46.2692 0.288 46.3852 0.24 46.5212 0.24C46.6652 0.24 46.7812 0.288 46.8692 0.383999C46.9652 0.472 47.0132 0.584 47.0132 0.719999C47.0132 0.855999 46.9652 0.972 46.8692 1.068C46.7812 1.164 46.6652 1.212 46.5212 1.212ZM51.9541 11.376C51.3861 11.376 50.8461 11.288 50.3341 11.112C49.8221 10.936 49.4061 10.692 49.0861 10.38L49.4101 9.924C49.7221 10.212 50.0941 10.436 50.5261 10.596C50.9661 10.756 51.4381 10.836 51.9421 10.836C52.7821 10.836 53.3981 10.64 53.7901 10.248C54.1901 9.856 54.3901 9.24 54.3901 8.4V6.66L54.5101 5.724L54.4141 4.788V2.736H54.9901V8.328C54.9901 9.376 54.7341 10.144 54.2221 10.632C53.7181 11.128 52.9621 11.376 51.9541 11.376ZM51.7861 8.772C51.1941 8.772 50.6621 8.644 50.1901 8.388C49.7261 8.124 49.3541 7.764 49.0741 7.308C48.8021 6.844 48.6661 6.316 48.6661 5.724C48.6661 5.124 48.8021 4.596 49.0741 4.14C49.3541 3.684 49.7261 3.328 50.1901 3.072C50.6621 2.816 51.1941 2.688 51.7861 2.688C52.3541 2.688 52.8621 2.812 53.3101 3.06C53.7661 3.3 54.1261 3.648 54.3901 4.104C54.6541 4.552 54.7861 5.092 54.7861 5.724C54.7861 6.348 54.6541 6.888 54.3901 7.344C54.1261 7.8 53.7661 8.152 53.3101 8.4C52.8621 8.648 52.3541 8.772 51.7861 8.772ZM51.8341 8.232C52.3381 8.232 52.7821 8.128 53.1661 7.92C53.5501 7.704 53.8501 7.408 54.0661 7.032C54.2901 6.648 54.4021 6.212 54.4021 5.724C54.4021 5.228 54.2901 4.792 54.0661 4.416C53.8501 4.04 53.5501 3.748 53.1661 3.54C52.7821 3.332 52.3381 3.228 51.8341 3.228C51.3461 3.228 50.9061 3.332 50.5141 3.54C50.1301 3.748 49.8261 4.04 49.6021 4.416C49.3861 4.792 49.2781 5.228 49.2781 5.724C49.2781 6.212 49.3861 6.648 49.6021 7.032C49.8261 7.408 50.1301 7.704 50.5141 7.92C50.9061 8.128 51.3461 8.232 51.8341 8.232ZM60.5898 2.688C61.1018 2.688 61.5458 2.788 61.9218 2.988C62.3058 3.18 62.6018 3.476 62.8098 3.876C63.0258 4.268 63.1338 4.756 63.1338 5.34V9H62.5338V5.388C62.5338 4.684 62.3538 4.148 61.9938 3.78C61.6418 3.412 61.1458 3.228 60.5058 3.228C60.0178 3.228 59.5938 3.328 59.2338 3.528C58.8738 3.728 58.5978 4.008 58.4058 4.368C58.2218 4.728 58.1298 5.16 58.1298 5.664V9H57.5298V0.0959995H58.1298V4.476L58.0218 4.284C58.2138 3.788 58.5298 3.4 58.9698 3.12C59.4098 2.832 59.9498 2.688 60.5898 2.688ZM67.428 9.048C66.876 9.048 66.452 8.896 66.156 8.592C65.868 8.288 65.724 7.872 65.724 7.344V1.368H66.324V7.284C66.324 7.684 66.424 7.992 66.624 8.208C66.824 8.424 67.112 8.532 67.488 8.532C67.88 8.532 68.204 8.416 68.46 8.184L68.712 8.604C68.552 8.756 68.356 8.868 68.124 8.94C67.9 9.012 67.668 9.048 67.428 9.048ZM64.572 3.252V2.736H68.316V3.252H64.572ZM71.9693 9.048C71.4493 9.048 70.9613 8.972 70.5053 8.82C70.0573 8.668 69.7093 8.476 69.4613 8.244L69.7373 7.764C69.9773 7.972 70.2973 8.152 70.6973 8.304C71.0973 8.448 71.5293 8.52 71.9933 8.52C72.6493 8.52 73.1213 8.412 73.4093 8.196C73.6973 7.98 73.8413 7.696 73.8413 7.344C73.8413 7.088 73.7653 6.888 73.6133 6.744C73.4693 6.592 73.2733 6.476 73.0253 6.396C72.7773 6.316 72.5053 6.252 72.2093 6.204C71.9133 6.148 71.6173 6.088 71.3213 6.024C71.0253 5.96 70.7533 5.868 70.5053 5.748C70.2573 5.628 70.0573 5.464 69.9053 5.256C69.7613 5.04 69.6893 4.756 69.6893 4.404C69.6893 4.084 69.7773 3.796 69.9533 3.54C70.1293 3.284 70.3933 3.08 70.7453 2.928C71.0973 2.768 71.5373 2.688 72.0653 2.688C72.4573 2.688 72.8493 2.744 73.2413 2.856C73.6413 2.968 73.9653 3.116 74.2133 3.3L73.9373 3.78C73.6733 3.58 73.3773 3.436 73.0493 3.348C72.7213 3.26 72.3893 3.216 72.0533 3.216C71.4453 3.216 70.9973 3.328 70.7093 3.552C70.4293 3.776 70.2893 4.056 70.2893 4.392C70.2893 4.656 70.3613 4.868 70.5053 5.028C70.6573 5.18 70.8573 5.3 71.1053 5.388C71.3533 5.468 71.6253 5.536 71.9213 5.592C72.2173 5.64 72.5133 5.696 72.8093 5.76C73.1053 5.824 73.3773 5.916 73.6253 6.036C73.8733 6.148 74.0693 6.308 74.2133 6.516C74.3653 6.716 74.4413 6.988 74.4413 7.332C74.4413 7.676 74.3453 7.976 74.1533 8.232C73.9693 8.488 73.6933 8.688 73.3253 8.832C72.9573 8.976 72.5053 9.048 71.9693 9.048ZM78.5638 9.048C77.9638 9.048 77.4278 8.912 76.9558 8.64C76.4918 8.368 76.1198 7.992 75.8398 7.512C75.5678 7.032 75.4318 6.484 75.4318 5.868C75.4318 5.244 75.5678 4.696 75.8398 4.224C76.1198 3.744 76.4918 3.368 76.9558 3.096C77.4278 2.824 77.9638 2.688 78.5638 2.688C79.1638 2.688 79.6998 2.824 80.1718 3.096C80.6438 3.368 81.0158 3.744 81.2878 4.224C81.5598 4.696 81.6958 5.244 81.6958 5.868C81.6958 6.484 81.5598 7.032 81.2878 7.512C81.0158 7.992 80.6438 8.368 80.1718 8.64C79.6998 8.912 79.1638 9.048 78.5638 9.048ZM78.5638 8.508C79.0438 8.508 79.4758 8.4 79.8598 8.184C80.2438 7.96 80.5438 7.648 80.7598 7.248C80.9758 6.848 81.0838 6.388 81.0838 5.868C81.0838 5.34 80.9758 4.88 80.7598 4.488C80.5438 4.088 80.2438 3.78 79.8598 3.564C79.4758 3.34 79.0438 3.228 78.5638 3.228C78.0838 3.228 77.6518 3.34 77.2678 3.564C76.8918 3.78 76.5918 4.088 76.3678 4.488C76.1518 4.88 76.0438 5.34 76.0438 5.868C76.0438 6.388 76.1518 6.848 76.3678 7.248C76.5918 7.648 76.8918 7.96 77.2678 8.184C77.6518 8.4 78.0838 8.508 78.5638 8.508ZM83.5572 9V0.0959995H84.1572V9H83.5572ZM86.6141 9.048C86.4781 9.048 86.3581 9 86.2541 8.904C86.1581 8.8 86.1101 8.676 86.1101 8.532C86.1101 8.388 86.1581 8.268 86.2541 8.172C86.3581 8.076 86.4781 8.028 86.6141 8.028C86.7501 8.028 86.8661 8.076 86.9621 8.172C87.0661 8.268 87.1181 8.388 87.1181 8.532C87.1181 8.676 87.0661 8.8 86.9621 8.904C86.8661 9 86.7501 9.048 86.6141 9.048ZM91.3732 9.048C90.7652 9.048 90.2212 8.912 89.7412 8.64C89.2692 8.368 88.8932 7.992 88.6132 7.512C88.3412 7.032 88.2052 6.484 88.2052 5.868C88.2052 5.244 88.3412 4.692 88.6132 4.212C88.8932 3.732 89.2692 3.36 89.7412 3.096C90.2212 2.824 90.7652 2.688 91.3732 2.688C91.8772 2.688 92.3332 2.784 92.7412 2.976C93.1572 3.168 93.4932 3.456 93.7492 3.84L93.3052 4.164C93.0812 3.844 92.8012 3.608 92.4652 3.456C92.1292 3.304 91.7652 3.228 91.3732 3.228C90.8852 3.228 90.4452 3.34 90.0532 3.564C89.6692 3.78 89.3652 4.088 89.1412 4.488C88.9252 4.88 88.8172 5.34 88.8172 5.868C88.8172 6.396 88.9252 6.86 89.1412 7.26C89.3652 7.652 89.6692 7.96 90.0532 8.184C90.4452 8.4 90.8852 8.508 91.3732 8.508C91.7652 8.508 92.1292 8.432 92.4652 8.28C92.8012 8.128 93.0812 7.892 93.3052 7.572L93.7492 7.896C93.4932 8.28 93.1572 8.568 92.7412 8.76C92.3332 8.952 91.8772 9.048 91.3732 9.048ZM97.888 9.048C97.288 9.048 96.752 8.912 96.28 8.64C95.816 8.368 95.444 7.992 95.164 7.512C94.892 7.032 94.756 6.484 94.756 5.868C94.756 5.244 94.892 4.696 95.164 4.224C95.444 3.744 95.816 3.368 96.28 3.096C96.752 2.824 97.288 2.688 97.888 2.688C98.488 2.688 99.024 2.824 99.496 3.096C99.968 3.368 100.34 3.744 100.612 4.224C100.884 4.696 101.02 5.244 101.02 5.868C101.02 6.484 100.884 7.032 100.612 7.512C100.34 7.992 99.968 8.368 99.496 8.64C99.024 8.912 98.488 9.048 97.888 9.048ZM97.888 8.508C98.368 8.508 98.8 8.4 99.184 8.184C99.568 7.96 99.868 7.648 100.084 7.248C100.3 6.848 100.408 6.388 100.408 5.868C100.408 5.34 100.3 4.88 100.084 4.488C99.868 4.088 99.568 3.78 99.184 3.564C98.8 3.34 98.368 3.228 97.888 3.228C97.408 3.228 96.976 3.34 96.592 3.564C96.216 3.78 95.916 4.088 95.692 4.488C95.476 4.88 95.368 5.34 95.368 5.868C95.368 6.388 95.476 6.848 95.692 7.248C95.916 7.648 96.216 7.96 96.592 8.184C96.976 8.4 97.408 8.508 97.888 8.508ZM102.61 9.048C102.474 9.048 102.354 9 102.25 8.904C102.154 8.8 102.106 8.676 102.106 8.532C102.106 8.388 102.154 8.268 102.25 8.172C102.354 8.076 102.474 8.028 102.61 8.028C102.746 8.028 102.862 8.076 102.958 8.172C103.062 8.268 103.114 8.388 103.114 8.532C103.114 8.676 103.062 8.8 102.958 8.904C102.862 9 102.746 9.048 102.61 9.048ZM104.341 9V8.592L108.625 3.048L108.781 3.252H104.401V2.736H109.249V3.144L104.953 8.688L104.773 8.484H109.321V9H104.341ZM115.068 9V7.572L115.044 7.356V5.004C115.044 4.42 114.884 3.976 114.564 3.672C114.252 3.368 113.792 3.216 113.184 3.216C112.752 3.216 112.348 3.292 111.972 3.444C111.604 3.588 111.288 3.776 111.024 4.008L110.724 3.576C111.036 3.296 111.412 3.08 111.852 2.928C112.292 2.768 112.752 2.688 113.232 2.688C114.008 2.688 114.604 2.884 115.02 3.276C115.436 3.668 115.644 4.252 115.644 5.028V9H115.068ZM112.812 9.048C112.348 9.048 111.944 8.976 111.6 8.832C111.264 8.68 111.004 8.468 110.82 8.196C110.644 7.924 110.556 7.612 110.556 7.26C110.556 6.94 110.628 6.652 110.772 6.396C110.924 6.132 111.172 5.92 111.516 5.76C111.86 5.592 112.32 5.508 112.896 5.508H115.2V5.976H112.908C112.26 5.976 111.804 6.096 111.54 6.336C111.284 6.576 111.156 6.876 111.156 7.236C111.156 7.636 111.308 7.956 111.612 8.196C111.916 8.436 112.344 8.556 112.896 8.556C113.424 8.556 113.868 8.436 114.228 8.196C114.596 7.956 114.868 7.608 115.044 7.152L115.212 7.56C115.044 8.016 114.756 8.38 114.348 8.652C113.948 8.916 113.436 9.048 112.812 9.048Z" fill="black"/>
</svg>
