<svg width="79" height="10" viewBox="0 0 79 10" fill="none" xmlns="http://www.w3.org/2000/svg">
<path d="M1.26 9.94C0.893333 9.33333 0.61 8.63333 0.41 7.84C0.216667 7.04667 0.12 6.18667 0.12 5.26C0.12 4.33333 0.216667 3.47 0.41 2.67C0.61 1.86333 0.893333 1.16667 1.26 0.58H1.74C1.34667 1.24667 1.06 1.96667 0.88 2.74C0.7 3.51333 0.61 4.35333 0.61 5.26C0.61 6.16667 0.7 7.00667 0.88 7.78C1.06 8.55333 1.34667 9.27333 1.74 9.94H1.26ZM4.83289 6.57V2.43H5.28289V6.57H4.83289ZM2.93289 4.72V4.29H7.18289V4.72H2.93289ZM8.20883 8V7.64L11.1688 4.7C11.4488 4.42 11.6588 4.17667 11.7988 3.97C11.9388 3.75667 12.0322 3.56 12.0788 3.38C12.1322 3.2 12.1588 3.02333 12.1588 2.85C12.1588 2.41 12.0088 2.06333 11.7088 1.81C11.4088 1.55 10.9688 1.42 10.3888 1.42C9.94883 1.42 9.56216 1.48667 9.22883 1.62C8.90216 1.75333 8.61883 1.95667 8.37883 2.23L8.01883 1.91C8.28549 1.60333 8.62216 1.36667 9.02883 1.2C9.44216 1.03333 9.90883 0.95 10.4288 0.95C10.8888 0.95 11.2855 1.02667 11.6188 1.18C11.9588 1.32667 12.2188 1.54 12.3988 1.82C12.5855 2.09333 12.6788 2.42 12.6788 2.8C12.6788 3.02667 12.6455 3.25 12.5788 3.47C12.5188 3.68333 12.4055 3.91 12.2388 4.15C12.0788 4.39 11.8455 4.66333 11.5388 4.97L8.75883 7.74L8.58883 7.54H13.0188V8H8.20883ZM15.1943 8L18.2743 1.24L18.4543 1.46H13.9843L14.2443 1.22V2.8H13.7443V1H18.7643V1.36L15.7543 8H15.1943ZM20.1648 9.94H19.6948C20.0815 9.27333 20.3648 8.55333 20.5448 7.78C20.7248 7.00667 20.8148 6.16667 20.8148 5.26C20.8148 4.35333 20.7248 3.51333 20.5448 2.74C20.3648 1.96667 20.0815 1.24667 19.6948 0.58H20.1648C20.5315 1.16667 20.8148 1.86333 21.0148 2.67C21.2148 3.47 21.3148 4.33333 21.3148 5.26C21.3148 6.18667 21.2148 7.04667 21.0148 7.84C20.8148 8.63333 20.5315 9.33333 20.1648 9.94ZM25.4159 8V7.64L28.3759 4.7C28.6559 4.42 28.8659 4.17667 29.0059 3.97C29.1459 3.75667 29.2392 3.56 29.2859 3.38C29.3392 3.2 29.3659 3.02333 29.3659 2.85C29.3659 2.41 29.2159 2.06333 28.9159 1.81C28.6159 1.55 28.1759 1.42 27.5959 1.42C27.1559 1.42 26.7692 1.48667 26.4359 1.62C26.1092 1.75333 25.8259 1.95667 25.5859 2.23L25.2259 1.91C25.4925 1.60333 25.8292 1.36667 26.2359 1.2C26.6492 1.03333 27.1159 0.95 27.6359 0.95C28.0959 0.95 28.4925 1.02667 28.8259 1.18C29.1659 1.32667 29.4259 1.54 29.6059 1.82C29.7925 2.09333 29.8859 2.42 29.8859 2.8C29.8859 3.02667 29.8525 3.25 29.7859 3.47C29.7259 3.68333 29.6125 3.91 29.4459 4.15C29.2859 4.39 29.0525 4.66333 28.7459 4.97L25.9659 7.74L25.7959 7.54H30.2259V8H25.4159ZM32.4406 8V1.22L32.6706 1.46H30.7306V1H32.9506V8H32.4406ZM39.3944 0.95C40.0077 0.95 40.521 1.09 40.9344 1.37C41.3544 1.65 41.671 2.05333 41.8844 2.58C42.0977 3.1 42.2044 3.72667 42.2044 4.46C42.2044 5.24667 42.0744 5.90667 41.8144 6.44C41.5544 6.97333 41.191 7.37667 40.7244 7.65C40.2577 7.91667 39.7144 8.05 39.0944 8.05C38.7944 8.05 38.5077 8.02333 38.2344 7.97C37.9677 7.91667 37.7244 7.82333 37.5044 7.69L37.7144 7.28C37.8944 7.39333 38.1044 7.47667 38.3444 7.53C38.5844 7.57667 38.8344 7.6 39.0944 7.6C39.881 7.6 40.511 7.34667 40.9844 6.84C41.4577 6.32667 41.6944 5.56 41.6944 4.54C41.6944 4.38 41.6844 4.18333 41.6644 3.95C41.6444 3.71667 41.601 3.48667 41.5344 3.26L41.7144 3.31C41.6677 3.69667 41.5377 4.02667 41.3244 4.3C41.111 4.56667 40.8377 4.77333 40.5044 4.92C40.1777 5.06667 39.811 5.14 39.4044 5.14C38.9377 5.14 38.5277 5.05667 38.1744 4.89C37.8277 4.71667 37.5544 4.47333 37.3544 4.16C37.161 3.84667 37.0644 3.48 37.0644 3.06C37.0644 2.63333 37.1644 2.26333 37.3644 1.95C37.571 1.63 37.8477 1.38333 38.1944 1.21C38.5477 1.03667 38.9477 0.95 39.3944 0.95ZM39.4144 1.39C39.0477 1.39 38.7277 1.46 38.4544 1.6C38.181 1.73333 37.9644 1.92333 37.8044 2.17C37.651 2.41667 37.5744 2.71 37.5744 3.05C37.5744 3.55 37.7444 3.95 38.0844 4.25C38.4244 4.55 38.8877 4.7 39.4744 4.7C39.8544 4.7 40.191 4.62667 40.4844 4.48C40.7777 4.33333 41.0044 4.13333 41.1644 3.88C41.331 3.62667 41.4144 3.34333 41.4144 3.03C41.4144 2.75667 41.3377 2.49667 41.1844 2.25C41.031 1.99667 40.8077 1.79 40.5144 1.63C40.221 1.47 39.8544 1.39 39.4144 1.39ZM44.4521 8L47.5321 1.24L47.7121 1.46H43.2421L43.5021 1.22V2.8H43.0021V1H48.0221V1.36L45.0121 8H44.4521ZM51.6373 8.05C51.024 8.05 50.5073 7.91 50.0873 7.63C49.674 7.35 49.3607 6.94667 49.1473 6.42C48.934 5.89333 48.8273 5.26667 48.8273 4.54C48.8273 3.74667 48.9573 3.08667 49.2173 2.56C49.4773 2.02667 49.8407 1.62667 50.3073 1.36C50.774 1.08667 51.3173 0.95 51.9373 0.95C52.2373 0.95 52.524 0.976666 52.7973 1.03C53.0707 1.08333 53.314 1.17667 53.5273 1.31L53.3173 1.72C53.1373 1.60667 52.9273 1.52667 52.6873 1.48C52.454 1.42667 52.204 1.4 51.9373 1.4C51.1507 1.4 50.5207 1.65667 50.0473 2.17C49.574 2.67667 49.3373 3.44 49.3373 4.46C49.3373 4.61333 49.3473 4.81 49.3673 5.05C49.3873 5.28333 49.4307 5.51333 49.4973 5.74L49.3173 5.69C49.364 5.30333 49.494 4.97333 49.7073 4.7C49.9207 4.42667 50.194 4.22 50.5273 4.08C50.8607 3.93333 51.2273 3.86 51.6273 3.86C52.094 3.86 52.5007 3.94667 52.8473 4.12C53.2007 4.28667 53.474 4.52667 53.6673 4.84C53.8673 5.15333 53.9673 5.52 53.9673 5.94C53.9673 6.36667 53.864 6.74 53.6573 7.06C53.4573 7.37333 53.1807 7.61667 52.8273 7.79C52.4807 7.96333 52.084 8.05 51.6373 8.05ZM51.6173 7.61C51.984 7.61 52.304 7.54333 52.5773 7.41C52.8507 7.27 53.064 7.07667 53.2173 6.83C53.3773 6.57667 53.4573 6.28333 53.4573 5.95C53.4573 5.45 53.2873 5.05 52.9473 4.75C52.614 4.45 52.1507 4.3 51.5573 4.3C51.1773 4.3 50.8407 4.37333 50.5473 4.52C50.254 4.66667 50.024 4.86667 49.8573 5.12C49.6973 5.37333 49.6173 5.65667 49.6173 5.97C49.6173 6.24333 49.694 6.50667 49.8473 6.76C50.0007 7.00667 50.224 7.21 50.5173 7.37C50.8173 7.53 51.184 7.61 51.6173 7.61ZM60.2213 8.05C59.608 8.05 59.0913 7.91 58.6713 7.63C58.258 7.35 57.9447 6.94667 57.7313 6.42C57.518 5.89333 57.4113 5.26667 57.4113 4.54C57.4113 3.74667 57.5413 3.08667 57.8013 2.56C58.0613 2.02667 58.4247 1.62667 58.8913 1.36C59.358 1.08667 59.9013 0.95 60.5213 0.95C60.8213 0.95 61.108 0.976666 61.3813 1.03C61.6547 1.08333 61.898 1.17667 62.1113 1.31L61.9013 1.72C61.7213 1.60667 61.5113 1.52667 61.2713 1.48C61.038 1.42667 60.788 1.4 60.5213 1.4C59.7347 1.4 59.1047 1.65667 58.6313 2.17C58.158 2.67667 57.9213 3.44 57.9213 4.46C57.9213 4.61333 57.9313 4.81 57.9513 5.05C57.9713 5.28333 58.0147 5.51333 58.0813 5.74L57.9013 5.69C57.948 5.30333 58.078 4.97333 58.2913 4.7C58.5047 4.42667 58.778 4.22 59.1113 4.08C59.4447 3.93333 59.8113 3.86 60.2113 3.86C60.678 3.86 61.0847 3.94667 61.4313 4.12C61.7847 4.28667 62.058 4.52667 62.2513 4.84C62.4513 5.15333 62.5513 5.52 62.5513 5.94C62.5513 6.36667 62.448 6.74 62.2413 7.06C62.0413 7.37333 61.7647 7.61667 61.4113 7.79C61.0647 7.96333 60.668 8.05 60.2213 8.05ZM60.2013 7.61C60.568 7.61 60.888 7.54333 61.1613 7.41C61.4347 7.27 61.648 7.07667 61.8013 6.83C61.9613 6.57667 62.0413 6.28333 62.0413 5.95C62.0413 5.45 61.8713 5.05 61.5313 4.75C61.198 4.45 60.7347 4.3 60.1413 4.3C59.7613 4.3 59.4247 4.37333 59.1313 4.52C58.838 4.66667 58.608 4.86667 58.4413 5.12C58.2813 5.37333 58.2013 5.65667 58.2013 5.97C58.2013 6.24333 58.278 6.50667 58.4313 6.76C58.5847 7.00667 58.808 7.21 59.1013 7.37C59.4013 7.53 59.768 7.61 60.2013 7.61ZM63.287 8V7.64L66.247 4.7C66.527 4.42 66.737 4.17667 66.877 3.97C67.017 3.75667 67.1103 3.56 67.157 3.38C67.2103 3.2 67.237 3.02333 67.237 2.85C67.237 2.41 67.087 2.06333 66.787 1.81C66.487 1.55 66.047 1.42 65.467 1.42C65.027 1.42 64.6403 1.48667 64.307 1.62C63.9803 1.75333 63.697 1.95667 63.457 2.23L63.097 1.91C63.3636 1.60333 63.7003 1.36667 64.107 1.2C64.5203 1.03333 64.987 0.95 65.507 0.95C65.967 0.95 66.3636 1.02667 66.697 1.18C67.037 1.32667 67.297 1.54 67.477 1.82C67.6636 2.09333 67.757 2.42 67.757 2.8C67.757 3.02667 67.7236 3.25 67.657 3.47C67.597 3.68333 67.4836 3.91 67.317 4.15C67.157 4.39 66.9236 4.66333 66.617 4.97L63.837 7.74L63.667 7.54H68.097V8H63.287ZM70.3117 8V1.22L70.5417 1.46H68.6017V1H70.8217V8H70.3117ZM72.4671 6.06V5.69L76.2671 1H76.8371L73.0471 5.69L72.7671 5.61H78.4271V6.06H72.4671ZM76.4571 8V6.06L76.4671 5.61V3.9H76.9571V8H76.4571Z" fill="black"/>
</svg>
