<?xml version="1.0" encoding="UTF-8"?>
<svg id="Layer_2" data-name="Layer 2" xmlns="http://www.w3.org/2000/svg" viewBox="0 0 504.33 476.99">
  <defs>
    <style>
      .cls-1 {
        fill: #3bb3eb;
      }
    </style>
  </defs>
  <g id="Layer_1-2" data-name="Layer 1">
    <g>
      <path class="cls-1" d="M400.07,201.25c-8.69-5.08-18.21-9.25-28.55-12.51-10.35-3.26-20.82-5.98-31.39-8.17-10.58-2.18-20.2-4.37-28.86-6.57-8.66-2.2-15.65-5.31-20.96-9.35-5.32-4.03-8.01-9.4-8.07-16.12-.05-5.28,1.53-10.09,4.73-14.44,3.2-4.35,8.26-7.82,15.2-10.4,6.93-2.58,16.16-3.93,27.68-4.04,11.03-.1,22.57,1.41,34.6,4.54,12.03,3.13,23.71,7.88,35.05,14.25l17.95-44.08c-11.58-7.09-25.13-12.48-40.65-16.18-15.51-3.69-31.19-5.47-47.03-5.32-23.76,.22-43.46,3.95-59.11,11.17-15.65,7.23-27.26,16.81-34.83,28.76-7.13,11.25-10.84,23.58-11.13,37-13.32-3.89-28.34-5.77-45.04-5.61l-109.06,1.01,2.33,251.96,58.67-.54-.65-70.55,50.39-.47c.86,0,1.71-.03,2.57-.05l49.55,70.12,62.63-.58-55.09-77.95c7.37,3.34,15.6,6.29,24.7,8.84,18.64,5.23,38.05,7.75,58.21,7.56,23.76-.22,43.52-4,59.29-11.35s27.5-16.93,35.19-28.76c7.69-11.83,11.47-24.82,11.34-38.98-.12-12.96-2.92-23.79-8.4-32.5-5.48-8.71-12.56-15.6-21.25-20.68Zm-182.81,1.42c9.19,7.47,13.85,18.17,13.98,32.09,.13,13.92-4.33,24.76-13.38,32.52-9.05,7.77-22.45,11.73-40.21,11.89l-47.15,.44-.81-87.46,47.15-.44c17.75-.16,31.23,3.49,40.42,10.96Zm149.63,70.52c-3.33,3.99-8.52,7.22-15.57,9.68-7.06,2.47-16.34,3.75-27.86,3.86-14.93,.14-29.77-2.13-44.51-6.79,7.45-12.97,11.11-28.21,10.95-45.72-.04-4.66-.36-9.17-.95-13.51,8.36,2.36,16.68,4.43,24.96,6.18,10.34,2.19,19.9,4.5,28.68,6.93,8.78,2.44,15.83,5.61,21.15,9.52,5.31,3.91,8,9.23,8.07,15.94,.05,5.28-1.59,9.91-4.91,13.9Z"/>
      <polygon class="cls-1" points="19 170.21 0 170.21 0 476.99 312.58 476.99 312.58 457.99 19 457.99 19 170.21"/>
      <polygon class="cls-1" points="209.55 2.08 209.68 21.08 483.28 19.13 485.33 282.41 504.33 282.27 502.13 0 209.55 2.08"/>
    </g>
  </g>
</svg>