<?xml version="1.0" encoding="UTF-8"?>
<svg id="Layer_2" data-name="Layer 2" xmlns="http://www.w3.org/2000/svg" viewBox="0 0 1189.87 476.99">
  <defs>
    <style>
      .cls-1 {
        fill: #3bb3eb;
      }
    </style>
  </defs>
  <g id="Layer_1-2" data-name="Layer 1">
    <g>
      <path class="cls-1" d="M400.07,201.25c-8.69-5.08-18.21-9.25-28.55-12.51-10.35-3.26-20.82-5.98-31.39-8.17-10.58-2.18-20.2-4.37-28.86-6.57-8.66-2.2-15.65-5.31-20.96-9.35-5.32-4.03-8.01-9.4-8.07-16.12-.05-5.28,1.53-10.09,4.73-14.44,3.2-4.35,8.26-7.82,15.2-10.4,6.93-2.58,16.16-3.93,27.68-4.04,11.03-.1,22.57,1.41,34.6,4.54,12.03,3.13,23.71,7.88,35.05,14.25l17.95-44.08c-11.58-7.09-25.13-12.48-40.65-16.18-15.51-3.69-31.19-5.47-47.03-5.32-23.76,.22-43.46,3.95-59.11,11.17-15.65,7.23-27.26,16.81-34.83,28.76-7.13,11.25-10.84,23.58-11.13,37-13.32-3.89-28.34-5.77-45.04-5.61l-109.06,1.01,2.33,251.96,58.67-.54-.65-70.55,50.39-.47c.86,0,1.71-.03,2.57-.05l49.55,70.12,62.63-.58-55.09-77.95c7.37,3.34,15.6,6.29,24.7,8.84,18.64,5.23,38.05,7.75,58.21,7.56,23.76-.22,43.52-4,59.29-11.35s27.5-16.93,35.19-28.76c7.69-11.83,11.47-24.82,11.34-38.98-.12-12.96-2.92-23.79-8.4-32.5-5.48-8.71-12.56-15.6-21.25-20.68Zm-182.81,1.42c9.19,7.47,13.85,18.17,13.98,32.09,.13,13.92-4.33,24.76-13.38,32.52-9.05,7.77-22.45,11.73-40.21,11.89l-47.15,.44-.81-87.46,47.15-.44c17.75-.16,31.23,3.49,40.42,10.96Zm149.63,70.52c-3.33,3.99-8.52,7.22-15.57,9.68-7.06,2.47-16.34,3.75-27.86,3.86-14.93,.14-29.77-2.13-44.51-6.79,7.45-12.97,11.11-28.21,10.95-45.72-.04-4.66-.36-9.17-.95-13.51,8.36,2.36,16.68,4.43,24.96,6.18,10.34,2.19,19.9,4.5,28.68,6.93,8.78,2.44,15.83,5.61,21.15,9.52,5.31,3.91,8,9.23,8.07,15.94,.05,5.28-1.59,9.91-4.91,13.9Z"/>
      <path class="cls-1" d="M612.83,194.56c5.8-2.59,10.26-6.31,13.38-11.18,3.12-4.86,4.69-10.69,4.69-17.47s-1.56-12.63-4.69-17.54c-3.12-4.91-7.59-8.65-13.38-11.24-5.8-2.59-12.81-3.88-21.02-3.88h-36.54v93.7h13.38v-28.51h23.16c2.06,0,4.04-.08,5.95-.24l20.15,28.76h14.59l-22.23-31.37c.87-.32,1.73-.65,2.56-1.02Zm-21.42-7.5h-22.76v-42.17h22.76c8.57,0,15.06,1.83,19.48,5.49,4.42,3.66,6.63,8.83,6.63,15.53s-2.21,11.89-6.63,15.59c-4.42,3.71-10.91,5.56-19.48,5.56Z"/>
      <rect class="cls-1" x="650.7" y="156.01" width="12.85" height="70.94"/>
      <path class="cls-1" d="M657.13,142.36c2.59,0,4.69-.82,6.29-2.48,1.61-1.65,2.41-3.68,2.41-6.09s-.83-4.26-2.48-5.82c-1.65-1.56-3.73-2.34-6.22-2.34s-4.57,.8-6.22,2.41c-1.65,1.61-2.48,3.61-2.48,6.02s.82,4.28,2.48,5.89c1.65,1.61,3.72,2.41,6.22,2.41Z"/>
      <path class="cls-1" d="M743.73,166.89c-2.64-3.38-5.85-6-9.64-7.86-5-2.45-10.53-3.68-16.6-3.68-6.87,0-13.01,1.43-18.41,4.28-5.4,2.86-9.68,6.85-12.85,11.98-3.17,5.13-4.75,11.13-4.75,18s1.58,12.76,4.75,17.94c3.17,5.18,7.45,9.21,12.85,12.11,5.4,2.9,11.53,4.35,18.41,4.35,6.07,0,11.6-1.27,16.6-3.82,3.48-1.77,6.46-4.17,8.97-7.18v5.64c0,8.03-1.96,14.01-5.89,17.94-3.93,3.93-10.08,5.89-18.47,5.89-5.27,0-10.31-.83-15.13-2.48-4.82-1.65-8.88-3.91-12.18-6.76l-6.16,9.91c3.84,3.39,8.81,6,14.92,7.83,6.11,1.83,12.43,2.74,18.94,2.74,12.05,0,21.19-2.94,27.44-8.83,6.25-5.89,9.37-15.08,9.37-27.57v-61.31h-12.18v10.87Zm-3.55,34.77c-2.1,3.48-4.98,6.2-8.63,8.17-3.66,1.96-7.85,2.95-12.58,2.95s-8.95-.98-12.65-2.95c-3.7-1.96-6.6-4.68-8.7-8.17-2.1-3.48-3.15-7.5-3.15-12.05s1.05-8.57,3.15-12.05c2.1-3.48,5-6.18,8.7-8.1,3.7-1.92,7.92-2.88,12.65-2.88s8.92,.96,12.58,2.88c3.66,1.92,6.54,4.62,8.63,8.1,2.1,3.48,3.15,7.5,3.15,12.05s-1.05,8.57-3.15,12.05Z"/>
      <path class="cls-1" d="M833.62,158.69c-4.42-2.23-9.53-3.35-15.33-3.35-6.42,0-12.05,1.29-16.87,3.88-3.32,1.78-6.03,4.07-8.17,6.82v-38.41h-12.85v99.32h12.85v-36.54c0-5.17,.91-9.5,2.74-12.98,1.83-3.48,4.44-6.11,7.83-7.9,3.39-1.78,7.36-2.68,11.91-2.68,6.07,0,10.78,1.74,14.12,5.22,3.35,3.48,5.02,8.66,5.02,15.53v39.35h12.85v-40.83c0-6.96-1.25-12.72-3.75-17.27-2.5-4.55-5.96-7.94-10.37-10.17Z"/>
      <path class="cls-1" d="M897.4,216.92c-3.57,0-6.31-1.02-8.23-3.08-1.92-2.05-2.88-5-2.88-8.83v-38.42h20.35v-10.58h-20.35v-15.53h-12.85v15.53h-12.05v10.58h12.05v38.95c0,7.14,1.96,12.63,5.89,16.46,3.93,3.84,9.46,5.76,16.6,5.76,2.94,0,5.78-.4,8.5-1.21,2.72-.8,5.06-2.05,7.03-3.75l-4.02-9.24c-2.68,2.23-6.02,3.35-10.04,3.35Z"/>
      <path class="cls-1" d="M619.12,324.12c-3.3-1.92-6.92-3.48-10.84-4.69-3.93-1.21-7.9-2.25-11.91-3.15-4.02-.89-7.65-1.83-10.91-2.81-3.26-.98-5.89-2.34-7.9-4.08s-3.01-4.04-3.01-6.89c0-2.32,.69-4.44,2.08-6.36,1.38-1.92,3.59-3.46,6.63-4.62,3.03-1.16,6.91-1.74,11.65-1.74,4.1,0,8.39,.6,12.85,1.81,4.46,1.21,8.79,3.06,12.98,5.55l5.49-13.52c-4.11-2.68-8.92-4.73-14.46-6.16s-11.11-2.14-16.73-2.14c-8.57,0-15.64,1.27-21.22,3.81-5.58,2.54-9.73,5.94-12.45,10.17-2.72,4.24-4.08,8.9-4.08,13.99s1,9.1,3.01,12.31,4.66,5.78,7.96,7.7c3.3,1.92,6.94,3.5,10.91,4.75,3.97,1.25,7.94,2.3,11.91,3.15,3.97,.85,7.58,1.79,10.84,2.81,3.26,1.03,5.91,2.41,7.96,4.15,2.05,1.74,3.08,4.04,3.08,6.89,0,2.32-.71,4.4-2.14,6.22-1.43,1.83-3.66,3.28-6.69,4.35-3.04,1.07-7.01,1.61-11.91,1.61-5.8,0-11.47-.98-17-2.95-5.53-1.96-10.17-4.42-13.92-7.36l-6.02,13.52c4.02,3.3,9.35,6,16,8.1,6.65,2.1,13.63,3.15,20.95,3.15,8.57,0,15.66-1.27,21.28-3.82,5.62-2.54,9.79-5.93,12.52-10.17,2.72-4.24,4.08-8.86,4.08-13.85s-1-8.95-3.01-12.11c-2.01-3.17-4.66-5.71-7.96-7.63Z"/>
      <path class="cls-1" d="M697.62,302.7c-5.76-3.17-12.34-4.75-19.74-4.75s-13.83,1.58-19.54,4.75c-5.71,3.17-10.22,7.48-13.52,12.92-3.3,5.44-4.95,11.78-4.95,19.01s1.65,13.34,4.95,18.87c3.3,5.53,7.83,9.88,13.59,13.05,5.76,3.17,12.25,4.75,19.48,4.75s13.88-1.58,19.68-4.75c5.8-3.17,10.33-7.5,13.59-12.98,3.26-5.49,4.89-11.8,4.89-18.94s-1.63-13.56-4.89-19.01c-3.26-5.44-7.76-9.75-13.52-12.92Zm-1.2,43.77c-1.83,3.44-4.35,6.07-7.56,7.9-3.21,1.83-6.87,2.74-10.98,2.74s-7.5-.91-10.71-2.74c-3.21-1.83-5.75-4.46-7.63-7.9-1.87-3.43-2.81-7.38-2.81-11.85s.94-8.5,2.81-11.85,4.42-5.93,7.63-7.76c3.21-1.83,6.83-2.74,10.84-2.74s7.63,.92,10.84,2.74c3.21,1.83,5.73,4.42,7.56,7.76,1.83,3.35,2.74,7.29,2.74,11.85s-.92,8.41-2.74,11.85Z"/>
      <rect class="cls-1" x="732.22" y="271.05" width="16.6" height="99.32"/>
      <path class="cls-1" d="M823.24,335.03c0,4.73-.8,8.7-2.41,11.91-1.61,3.21-3.88,5.62-6.83,7.23-2.95,1.61-6.38,2.41-10.31,2.41-5.27,0-9.37-1.58-12.31-4.75-2.94-3.17-4.42-7.92-4.42-14.25v-38.68h-16.87v40.83c0,7.14,1.32,13.05,3.95,17.74,2.63,4.68,6.27,8.16,10.91,10.44,4.64,2.28,9.99,3.41,16.06,3.41,5.53,0,10.62-1.25,15.26-3.75,3.08-1.66,5.66-3.79,7.76-6.35v9.16h15.93v-71.48h-16.73v36.14Z"/>
      <path class="cls-1" d="M890.97,357.52c-3.21,0-5.71-.94-7.5-2.81-1.79-1.88-2.68-4.51-2.68-7.9v-34h19.28v-13.39h-19.28v-16.33h-16.6v16.33h-11.78v13.39h11.78v34.53c0,7.85,2.14,13.81,6.42,17.87s10.35,6.09,18.2,6.09c2.95,0,5.84-.4,8.7-1.21,2.85-.8,5.31-2.01,7.36-3.61l-4.82-11.91c-2.41,1.96-5.44,2.95-9.1,2.95Z"/>
      <path class="cls-1" d="M927.11,267.03c-3.12,0-5.69,.98-7.7,2.95s-3.01,4.28-3.01,6.96c0,2.86,1,5.27,3.01,7.23,2.01,1.96,4.57,2.94,7.7,2.94s5.8-1,7.76-3.01c1.96-2.01,2.94-4.44,2.94-7.29s-1-5.2-3.01-7.03c-2.01-1.83-4.57-2.74-7.7-2.74Z"/>
      <rect class="cls-1" x="918.82" y="298.89" width="16.6" height="71.48"/>
      <path class="cls-1" d="M1009.23,302.7c-5.76-3.17-12.34-4.75-19.74-4.75s-13.83,1.58-19.54,4.75c-5.71,3.17-10.22,7.48-13.52,12.92-3.3,5.44-4.95,11.78-4.95,19.01s1.65,13.34,4.95,18.87c3.3,5.53,7.83,9.88,13.59,13.05,5.76,3.17,12.25,4.75,19.48,4.75s13.88-1.58,19.68-4.75c5.8-3.17,10.33-7.5,13.59-12.98,3.26-5.49,4.89-11.8,4.89-18.94s-1.63-13.56-4.89-19.01c-3.26-5.44-7.76-9.75-13.52-12.92Zm-1.2,43.77c-1.83,3.44-4.35,6.07-7.56,7.9-3.21,1.83-6.87,2.74-10.98,2.74s-7.5-.91-10.71-2.74c-3.21-1.83-5.75-4.46-7.63-7.9-1.87-3.43-2.81-7.38-2.81-11.85s.94-8.5,2.81-11.85,4.42-5.93,7.63-7.76c3.21-1.83,6.83-2.74,10.84-2.74s7.63,.92,10.84,2.74c3.21,1.83,5.73,4.42,7.56,7.76,1.83,3.35,2.74,7.29,2.74,11.85s-.92,8.41-2.74,11.85Z"/>
      <path class="cls-1" d="M1099.58,301.3c-4.42-2.23-9.53-3.35-15.33-3.35-6.25,0-11.76,1.25-16.53,3.75-3.19,1.67-5.83,3.8-7.96,6.38v-9.19h-15.93v71.48h16.6v-36.14c0-4.82,.82-8.81,2.48-11.98,1.65-3.17,3.99-5.55,7.03-7.16,3.03-1.61,6.51-2.41,10.44-2.41,5.44,0,9.64,1.56,12.58,4.69,2.94,3.12,4.42,7.85,4.42,14.19v38.82h16.73v-40.96c0-7.23-1.32-13.16-3.95-17.8-2.63-4.64-6.16-8.08-10.58-10.31Z"/>
      <path class="cls-1" d="M1187.46,339.45c-1.61-2.5-3.73-4.44-6.36-5.82-2.63-1.38-5.51-2.45-8.63-3.21-3.12-.76-6.27-1.38-9.44-1.87-3.17-.49-6.05-1.02-8.63-1.61-2.59-.58-4.68-1.41-6.29-2.48s-2.41-2.68-2.41-4.82c0-2.32,1.25-4.22,3.75-5.69,2.5-1.47,6.25-2.21,11.24-2.21,3.39,0,6.83,.38,10.31,1.14,3.48,.76,6.87,2.12,10.17,4.08l6.56-12.72c-3.3-1.96-7.43-3.5-12.38-4.62-4.95-1.12-9.79-1.67-14.52-1.67-6.42,0-11.98,.94-16.66,2.81-4.69,1.87-8.32,4.48-10.91,7.83-2.59,3.35-3.88,7.25-3.88,11.71,0,4.2,.8,7.54,2.41,10.04,1.61,2.5,3.7,4.48,6.29,5.96,2.59,1.47,5.46,2.59,8.63,3.35,3.17,.76,6.33,1.36,9.5,1.81,3.17,.45,6.04,.94,8.63,1.47,2.59,.54,4.68,1.32,6.29,2.34,1.61,1.03,2.41,2.52,2.41,4.48,0,2.41-1.18,4.31-3.55,5.69-2.37,1.38-6.14,2.07-11.31,2.07-4.55,0-9.06-.65-13.52-1.94-4.46-1.29-8.3-2.96-11.51-5.02l-6.43,12.72c3.3,2.23,7.67,4.13,13.12,5.69,5.44,1.56,11.2,2.34,17.27,2.34,6.69,0,12.43-.92,17.2-2.74,4.77-1.83,8.48-4.37,11.11-7.63,2.63-3.26,3.95-7.16,3.95-11.71,0-4.02-.8-7.27-2.41-9.77Z"/>
      <polygon class="cls-1" points="19 170.21 0 170.21 0 476.99 312.58 476.99 312.58 457.99 19 457.99 19 170.21"/>
      <polygon class="cls-1" points="209.55 2.08 209.68 21.08 483.28 19.13 485.33 282.41 504.33 282.27 502.13 0 209.55 2.08"/>
    </g>
  </g>
</svg>